<?xml version="1.0" encoding="utf-8"?>
<!-- Generator: Adobe Illustrator 25.2.3, SVG Export Plug-In . SVG Version: 6.00 Build 0)  -->
<svg version="1.1" id="Ebene_1" xmlns="http://www.w3.org/2000/svg" xmlns:xlink="http://www.w3.org/1999/xlink" x="0px" y="0px"
	 viewBox="0 0 240.9 155.9" style="enable-background:new 0 0 240.9 155.9;" xml:space="preserve">
<style type="text/css">
	.st0{font-family:'FrutigerLTCom-Light';}
	.st1{font-size:6px;}
	.st2{font-family:'FrutigerLTCom-Roman';}
	.st3{font-size:9px;}
	.st4{fill-rule:evenodd;clip-rule:evenodd;fill:#009982;}
	.st5{fill-rule:evenodd;clip-rule:evenodd;fill:#FFFFFF;}
	.st6{fill-rule:evenodd;clip-rule:evenodd;}
</style>
<rect
   y="0"
   x="0"
   height="155.900"
   width="240.900"
   id="whitebackground"
   style="fill:#ffffff;fill-opacity:1;stroke:none;" />
<g id="data">
	<a id="data-guy-ref" href="http://iphome.hhi.de/lapuschkin">
		<g id="data-guy">
			<text transform="matrix(1 0 0 1 45.5197 60.6586)" class="st0 st1">Dr. rer. nat. </text>
			<text transform="matrix(1 0 0 1 45.5197 70.6664)" class="st2 st3">Sebastian Lapuschkin</text>
			<text transform="matrix(1 0 0 1 45.5197 78.6664)" class="st0 st1">Head of Group</text>
		</g>
	</a>
	<a id="data-department-ref" href="https://www.hhi.fraunhofer.de/en/departments/ai">
		<g id="data-department">
			<text transform="matrix(1 0 0 1 45.5197 92.3305)" class="st0 st1">Artificial Intelligence</text>
		<g/>
	</a>
	<a id="data-group-ref" href="https://www.hhi.fraunhofer.de/en/departments/ai/research-groups/explainable-artificial-intelligence">
		<g id="data-group">
			<text transform="matrix(1 0 0 1 45.5197 100.3383)" class="st0 st1">Explainable Artificial Intelligence</text>
		<g/>
	</a>
	<a id="data-phone-ref" href="tel:+4930-31002-371">
		<g id="data-phone">
			<text transform="matrix(1 0 0 1 45.5197 115.5336)" class="st0 st1">phone</text>
			<text transform="matrix(1 0 0 1 65.3634 115.5336)" class="st0 st1">+ 49 30 31002 371</text>
		</g>
	</a>
	<a id="data-email-ref" href="mailto:sebastian.lapuschkin@hhi.frauhofer.de">
		<g id="data-email">
			<text transform="matrix(1 0 0 1 45.5197 122.7289)" class="st0 st1">email</text>
			<text transform="matrix(1 0 0 1 65.3634 122.7289)" class="st0 st1">sebastian.lapuschkin@hhi.fraunhofer.de</text>
		</g>
	</a>
	<a id="data-hhi-ref" href="https://hhi.fraunhofer.de">
		<g id="data-hhi">
			<text transform="matrix(1 0 0 1 45.5197 136.7367)" class="st0 st1">Fraunhofer Heinrich Hertz Institute HHI</text>
			<text transform="matrix(1 0 0 1 45.5197 144.7289)" class="st0 st1">Einsteinufer 37 | 10587 Berlin | Germany | www.hhi.fraunhofer.de</text>
		</g>
	</a>
</g>
<a id="hhilogo-ref" href="https://hhi.fraunhofer.de">
	<g id="hhilogo">
		<path class="st4" d="M19.5,30.4c4.6-2.4,11.4-6.2,19.4-11.8v-1.9c-7.1,4.6-14.2,8.3-19.4,10.8V30.4L19.5,30.4z"/>
		<path class="st4" d="M19.5,24.8c5.1-2.1,12.3-5.3,19.4-9.5v-0.9c-6.7,3.3-13.6,5.4-19.4,6.7V24.8L19.5,24.8z"/>
		<path class="st4" d="M38.9,30.4V21c-4.4,3.7-8.8,6.9-12.5,9.5H38.9L38.9,30.4z"/>
		<path class="st4" d="M23.9,30.4c3.5-2.1,7.7-4.8,11.9-7.9c1-0.7,2-1.5,3-2.3v-1.2c-6.2,4.7-12.6,8.6-17.6,11.4H23.9L23.9,30.4z"/>
		<path class="st4" d="M19.5,19.6c5.7-1,12.6-2.8,19.4-6v-1.1c-6.8,3.1-13.7,4.4-19.4,4.8V19.6L19.5,19.6z"/>
		<path class="st4" d="M19.5,11v5.4c0.4,0,0.9-0.1,1.3-0.1c4.7-0.4,11.2-1.2,18.1-4.2V11H19.5L19.5,11z"/>
		<path class="st5" d="M19.5,16.4v1c5.7-0.5,12.6-1.8,19.4-4.8v-0.5c-6.9,3-13.4,3.8-18.1,4.2C20.3,16.3,19.9,16.4,19.5,16.4
			L19.5,16.4z"/>
		<path class="st5" d="M19.5,21c5.8-1.3,12.7-3.4,19.4-6.7v-0.7c-6.8,3.2-13.7,5-19.4,6V21L19.5,21z"/>
		<path class="st5" d="M19.5,27.5c5.2-2.5,12.3-6.2,19.4-10.8v-1.4c-7.1,4.2-14.3,7.4-19.4,9.5V27.5L19.5,27.5z"/>
		<path class="st5" d="M23.9,30.4h2.5c3.7-2.5,8-5.8,12.5-9.5v-0.7c-1,0.8-2,1.5-3,2.3C31.6,25.7,27.4,28.4,23.9,30.4L23.9,30.4z"/>
		<path class="st5" d="M19.5,30.4h1.8c5-2.8,11.3-6.7,17.6-11.4v-0.5C30.8,24.2,24.1,28.1,19.5,30.4L19.5,30.4L19.5,30.4z"/>
		<path class="st6" d="M45.4,30.4H48v-5.7h4.4v-2H48v-3.2h4.6v-2h-7.2V30.4L45.4,30.4z M54.4,30.4h2.5v-3.5c0-1.4,0-3.9,2-3.9
			c0.4,0,0.9,0.1,1.1,0.2v-2.5c-0.3-0.1-0.5-0.1-0.8-0.1c-1.5,0-2.5,1.5-2.6,2.4h0v-2.2h-2.2V30.4L54.4,30.4z M61.9,23.5
			c0.8-0.6,1.9-1,3-1c1.5,0,2.2,0.5,2.2,2.1h-1.4c-1,0-2.3,0.1-3.2,0.6c-0.9,0.5-1.6,1.3-1.6,2.7c0,1.8,1.7,2.8,3.4,2.8
			c1.1,0,2.4-0.6,3-1.7h0c0,0.3,0,0.9,0.1,1.4h2.2c-0.1-0.7-0.1-1.4-0.1-2.1c0-0.7,0-1.4,0-2.4v-1.2c0-2.8-1.2-4-4.1-4
			c-1.1,0-2.4,0.3-3.3,0.7L61.9,23.5L61.9,23.5z M63.2,27.7c0-1.5,1.7-1.7,2.8-1.7H67c0,0.7-0.1,1.4-0.5,2c-0.4,0.5-1,0.9-1.7,0.9
			C63.9,28.8,63.2,28.5,63.2,27.7L63.2,27.7z M80.2,20.8h-2.5v4.7c0,1.2-0.4,3.2-2.2,3.2c-1.6,0-1.6-1.6-1.6-2.8v-5.1h-2.5v6.1
			c0,2.2,1,3.8,3.3,3.8c1.3,0,2.4-0.6,3.1-1.5h0v1.3h2.4V20.8L80.2,20.8z M82.8,30.4h2.5v-4.7c0-1.2,0.4-3.2,2.2-3.2
			c1.6,0,1.6,1.6,1.6,2.8v5.1h2.5v-6.1c0-2.2-1-3.8-3.3-3.8c-1.3,0-2.4,0.4-3.1,1.5h0v-1.3h-2.4V30.4L82.8,30.4z M94.2,30.4h2.5v-4.7
			c0-1.2,0.4-3.2,2.2-3.2c1.6,0,1.6,1.6,1.6,2.8l0,5.1h2.5v-6.1c0-2.2-1-3.8-3.3-3.8c-1.3,0-2.4,0.6-3,1.5h0v-5.7h-2.5V30.4
			L94.2,30.4z M104.5,25.7c0,2.8,1.8,5,5,5c3.2,0,5-2.2,5-5c0-3.2-2.2-5.1-5-5.1C106.7,20.6,104.5,22.5,104.5,25.7L104.5,25.7z
			M107.2,25.4c0-1.4,0.8-2.8,2.4-2.8c1.6,0,2.4,1.4,2.4,2.8c0,1.6-0.5,3.3-2.4,3.3C107.7,28.7,107.2,27,107.2,25.4L107.2,25.4z
			M117.1,30.4h2.5v-7.8h2.2v-1.8h-2.2v-1.2c0-0.7,0.3-1.5,1.1-1.5c0.5,0,0.9,0.2,1.1,0.3l0.2-2.1c-0.5-0.1-1.2-0.2-1.8-0.2
			c-2,0-3.1,1.3-3.1,3.3v1.3h-1.8v1.8h1.8V30.4L117.1,30.4z M125,24.7c0.1-1.3,0.8-2.3,2.2-2.3c1.4,0,2,1,2,2.3H125L125,24.7z
			M131,27.9c-0.9,0.5-2,1-3.2,1c-1.5,0-2.6-0.9-2.7-2.4l6.6,0c0-3.4-1-5.8-4.6-5.8c-3,0-4.4,2.3-4.4,5.1c0,3.1,1.8,5,5,5
			c1.3,0,2.4-0.3,3.3-0.8V27.9L131,27.9z M133.5,30.4h2.5v-3.5c0-1.4,0-3.9,2-3.9c0.4,0,0.9,0.1,1.1,0.2v-2.5
			c-0.3-0.1-0.5-0.1-0.8-0.1c-1.5,0-2.5,1.5-2.6,2.4h0v-2.2h-2.2V30.4L133.5,30.4z"/>
		<polygon class="st6" points="124.3,37.1 125.5,37.1 125.5,39.7 128.1,39.7 128.1,37.1 129.3,37.1 129.3,43.6 128.1,43.6
			128.1,40.7 125.5,40.7 125.5,43.6 124.3,43.6 124.3,37.1 	"/>
		<polygon class="st6" points="131,37.1 132.3,37.1 132.3,39.7 134.8,39.7 134.8,37.1 136,37.1 136,43.6 134.8,43.6 134.8,40.7
			132.3,40.7 132.3,43.6 131,43.6 131,37.1 	"/>
		<polygon class="st6" points="137.8,37.1 139.1,37.1 139.1,43.6 137.8,43.6 137.8,37.1 	"/>
	</g>
</a>
</svg>
